<?xml version="1.0" standalone="no"?>
<!DOCTYPE svg PUBLIC "-//W3C//DTD SVG 20010904//EN"
 "http://www.w3.org/TR/2001/REC-SVG-20010904/DTD/svg10.dtd">
<svg version="1.0" xmlns="http://www.w3.org/2000/svg"
 width="500.000000pt" height="500.000000pt" viewBox="0 0 500.000000 500.000000"
 preserveAspectRatio="xMidYMid meet">

<g transform="translate(0.000000,500.000000) scale(0.100000,-0.100000)"
fill="#000000" stroke="none">
<path d="M650 4734 c-187 -40 -341 -190 -385 -375 -13 -56 -15 -293 -15 -1855
0 -1759 0 -1792 20 -1869 11 -43 32 -99 47 -124 63 -107 174 -195 298 -234
l70 -22 1815 0 1815 0 70 22 c182 57 312 198 351 381 21 104 21 3608 -1 3701
-44 184 -203 336 -394 377 -98 21 -3594 19 -3691 -2z m680 -1369 c6 -15 21
-49 34 -78 40 -86 109 -243 171 -390 32 -76 62 -134 66 -130 5 5 57 125 118
268 60 143 118 281 130 308 l20 47 196 0 195 0 26 -57 c14 -32 26 -65 26 -73
1 -14 -25 -76 -167 -395 -35 -77 -95 -214 -135 -305 -81 -186 -100 -228 -233
-530 -52 -118 -108 -246 -124 -285 -17 -38 -34 -69 -38 -68 -5 1 -33 57 -63
125 -29 67 -92 209 -139 313 -96 214 -144 321 -198 445 -68 153 -146 329 -182
410 -23 50 -167 377 -180 408 -4 9 46 12 231 12 l236 0 10 -25z m2817 13 c-3
-7 -42 -96 -86 -198 l-81 -185 -209 -3 c-151 -2 -212 -6 -218 -15 -6 -6 -45
-93 -88 -192 -43 -99 -108 -250 -145 -335 -37 -85 -124 -288 -194 -450 -70
-162 -137 -316 -149 -342 l-22 -48 -217 0 c-120 0 -218 3 -218 7 0 3 24 63 54
132 343 797 526 1225 526 1232 0 6 -64 8 -152 7 l-151 -3 -79 -180 c-43 -99
-82 -189 -88 -200 -13 -28 -174 -400 -220 -510 -20 -49 -57 -135 -82 -190 -25
-55 -60 -135 -79 -177 -19 -43 -36 -78 -39 -78 -3 0 -19 30 -34 68 -58 135
-138 318 -162 369 -29 64 -30 81 -3 141 12 26 34 76 50 112 15 36 46 108 69
160 23 52 68 156 100 230 32 74 79 182 104 240 26 58 77 176 114 262 l67 158
819 0 c651 0 817 -3 813 -12z"/>
</g>
</svg>
