<?xml version="1.0" standalone="no"?>
<!DOCTYPE svg PUBLIC "-//W3C//DTD SVG 20010904//EN"
 "http://www.w3.org/TR/2001/REC-SVG-20010904/DTD/svg10.dtd">
<svg version="1.0" xmlns="http://www.w3.org/2000/svg"
 width="500.000000pt" height="500.000000pt" viewBox="0 0 500.000000 500.000000"
 preserveAspectRatio="xMidYMid meet">

<g transform="translate(0.000000,500.000000) scale(0.100000,-0.100000)"
fill="#000000" stroke="none">
<path d="M0 2500 l0 -2500 2500 0 2500 0 0 2500 0 2500 -2500 0 -2500 0 0
-2500z m4381 2234 c173 -51 302 -180 353 -353 14 -49 16 -238 16 -1881 0
-2001 4 -1863 -57 -1985 -35 -68 -132 -167 -201 -203 -126 -67 23 -62 -1992
-62 -2016 0 -1866 -5 -1993 63 -103 54 -181 147 -232 278 l-25 62 0 1837 c0
2025 -5 1876 62 2001 34 66 114 150 178 187 25 15 74 37 110 49 l65 22 1831 1
c1647 0 1836 -2 1885 -16z"/>
<path d="M850 3385 c0 -4 7 -20 16 -36 8 -17 48 -105 88 -197 69 -157 366
-823 515 -1157 37 -82 85 -190 106 -238 l40 -88 21 48 c12 26 55 122 94 213
40 91 123 280 185 420 62 140 156 354 210 475 53 121 117 266 142 322 48 110
49 115 13 196 l-21 47 -196 -2 -196 -3 -32 -75 c-17 -41 -46 -109 -63 -150
-77 -187 -165 -395 -168 -399 -8 -9 -18 13 -124 256 -59 136 -120 276 -135
311 l-28 62 -234 0 c-128 0 -233 -2 -233 -5z"/>
<path d="M2510 3370 c-6 -11 -25 -55 -44 -97 -161 -377 -289 -675 -375 -870
-55 -127 -101 -236 -101 -243 0 -10 55 -139 181 -421 16 -36 29 -71 29 -77 0
-32 20 -3 53 76 20 48 70 166 112 262 42 96 103 236 135 310 74 171 184 422
247 565 l49 110 152 3 c110 2 152 -1 152 -9 0 -11 -174 -426 -256 -609 -18
-41 -73 -169 -122 -285 -50 -115 -115 -268 -146 -339 -31 -70 -56 -130 -56
-132 0 -2 97 -4 215 -4 l214 0 15 29 c9 16 56 123 105 237 98 229 258 597 396
912 l88 202 212 0 211 0 73 168 c40 92 79 182 87 200 l14 32 -815 0 c-802 0
-814 0 -825 -20z"/>
</g>
</svg>
