<?xml version="1.0" encoding="UTF-8"?>
<svg version="1.1" xmlns="http://www.w3.org/2000/svg" width="500" height="500">
<path d="M0 0 C1.22740676 -0.00155999 2.45481351 -0.00311998 3.71941441 -0.00472724 C7.08700345 -0.0079987 10.4545358 -0.00685799 13.82212126 -0.00374103 C17.46996788 -0.00146154 21.11780985 -0.00497931 24.76565552 -0.00772095 C31.89939622 -0.01215198 39.03312636 -0.01121364 46.16686747 -0.00830831 C51.97489523 -0.00604182 57.78292004 -0.00574714 63.5909481 -0.00683212 C64.42041648 -0.00698536 65.24988486 -0.00713859 66.10448864 -0.00729647 C67.79014514 -0.00761623 69.47580165 -0.00794044 71.16145816 -0.00826906 C86.94740351 -0.01111655 102.73334304 -0.00784931 118.51928743 -0.00246869 C132.0156434 0.00198958 145.51199075 0.00123007 159.00834656 -0.00338745 C174.72414596 -0.00876189 190.43994025 -0.01083239 206.15574044 -0.00777519 C207.83825473 -0.00745669 209.52076902 -0.00714231 211.20328331 -0.00683212 C212.03083268 -0.00667785 212.85838205 -0.00652357 213.71100867 -0.00636462 C219.49526063 -0.00550736 225.27950931 -0.00694535 231.06376076 -0.00931168 C238.13785056 -0.01214228 245.2119293 -0.01130405 252.28601787 -0.00603093 C255.88393605 -0.0034359 259.48183591 -0.00231568 263.07975388 -0.00568008 C276.25310113 -0.01680327 289.4192299 0.03510921 302.58566284 0.49835205 C303.55585493 0.52713782 304.52604703 0.55592359 305.52563888 0.58558166 C316.523235 1.04194681 324.83870688 4.8784032 333.13310242 12.12698364 C333.72607117 12.60393677 334.31903992 13.08088989 334.92997742 13.57229614 C341.44954314 19.3129757 345.41387213 27.96929278 348.13310242 36.12698364 C348.22917399 37.97379685 348.26583195 39.82391716 348.27011681 41.67322254 C348.27772862 43.41441277 348.27772862 43.41441277 348.28549421 45.19077855 C348.28599197 46.47206708 348.28648972 47.75335561 348.28700256 49.07347107 C348.29101716 50.44376713 348.29545538 51.814062 348.30028212 53.18435544 C348.31225459 56.9586736 348.31789767 60.73297898 348.32246327 64.50731242 C348.32841713 68.57505866 348.34002783 72.64278959 348.35075378 76.71052551 C348.37528753 86.54108921 348.38990883 96.37165798 348.40281385 106.20224288 C348.40652586 108.97974995 348.41049911 111.75725652 348.41456652 114.5347631 C348.4398093 131.78736514 348.46185982 149.03996798 348.47429466 166.29258442 C348.47722432 170.28987442 348.48018598 174.2871644 348.48320007 178.28445435 C348.48394612 179.27795083 348.48469217 180.27144731 348.48546083 181.29504975 C348.49810313 197.37417315 348.53130988 213.45318568 348.57300191 229.5322573 C348.61547026 246.04642183 348.63899559 262.56052971 348.64421523 279.07474869 C348.6476244 288.34424823 348.65932074 297.61357471 348.69231796 306.8830204 C348.72038742 314.78113918 348.7312878 322.67904944 348.7201225 330.57721422 C348.71495288 334.60334092 348.717711 338.62903145 348.74258804 342.65509415 C348.76522698 346.35001181 348.76422904 350.04418372 348.74538417 353.73911574 C348.74129998 355.6901173 348.76162153 357.64112445 348.78317106 359.59201127 C348.66956523 372.37412094 345.03868195 383.78786677 336.13310242 393.12698364 C335.16437195 394.17305786 335.16437195 394.17305786 334.17607117 395.24026489 C326.60559474 402.69837804 315.31133866 408.24209155 304.60971832 408.26120472 C303.45404153 408.26566256 302.29836474 408.27012041 301.10766745 408.27471334 C299.83211445 408.27452897 298.55656146 408.27434461 297.24235535 408.27415466 C295.87817101 408.27745351 294.51398766 408.28117913 293.14980555 408.28529614 C289.39249636 408.29532226 285.63520315 408.29903393 281.87788248 408.30168545 C277.82860032 408.30558681 273.77933084 408.3151654 269.73005676 408.32389832 C259.94548307 408.34366963 250.16090833 408.35373072 240.37631965 408.36262611 C235.76833513 408.36700875 231.16035177 408.3723757 226.55236816 408.37761497 C211.2330372 408.39462948 195.91370695 408.40912283 180.59436798 408.41636372 C176.61802164 408.41827361 172.6416753 408.42019394 168.66532898 408.42214966 C167.1828757 408.42287527 167.1828757 408.42287527 165.67047387 408.42361554 C149.66694048 408.43191267 133.66348192 408.45724324 117.65998119 408.48973034 C101.22832128 408.52281445 84.79669936 408.54081378 68.36500597 408.54400796 C59.13978469 408.54617202 49.91467245 408.55490531 40.68948364 408.58046913 C32.83118856 408.60219477 24.973029 408.61021747 17.11470729 408.60050235 C13.10724042 408.59596276 9.10005306 408.59782371 5.09262466 408.61726379 C1.41830338 408.63493344 -2.25553528 408.63386743 -5.92986196 408.6183665 C-7.87710165 408.61487978 -9.82434662 408.63098851 -11.77151537 408.64797097 C-25.71014044 408.5463119 -37.50867183 403.40888695 -47.67939758 393.87698364 C-51.91742387 389.4442777 -54.54228082 384.76581305 -56.86689758 379.12698364 C-57.21881165 378.32776489 -57.57072571 377.52854614 -57.93330383 376.70510864 C-59.65110239 371.96139716 -59.99212691 367.26363052 -60.00111866 362.25007343 C-60.0055765 361.09190689 -60.01003435 359.93374035 -60.01462728 358.74047786 C-60.01444292 357.47755434 -60.01425855 356.21463082 -60.0140686 354.91343689 C-60.01737057 353.5507882 -60.02109684 352.18814048 -60.02521008 350.82549399 C-60.03520001 347.0863644 -60.038942 343.34725087 -60.04159939 339.60810983 C-60.04551128 335.57319548 -60.05508884 331.53829373 -60.06381226 327.50338745 C-60.08354945 317.76307791 -60.09363839 308.02276737 -60.10254005 298.28244284 C-60.10692656 293.69289443 -60.11229234 289.10334717 -60.11752892 284.51379967 C-60.13453678 269.25353771 -60.14903113 253.99327646 -60.15627766 238.73300648 C-60.15818746 234.77538362 -60.16010781 230.81776077 -60.1620636 226.86013794 C-60.16254734 225.87652287 -60.16303108 224.89290781 -60.16352948 223.87948623 C-60.17183061 207.94404198 -60.1971709 192.00867277 -60.22964428 176.0732613 C-60.26272774 159.7047871 -60.28072749 143.33635104 -60.2839219 126.96784323 C-60.28608556 117.7806725 -60.29481344 108.59361127 -60.32038307 99.40647316 C-60.34210747 91.58301855 -60.35013185 83.75970007 -60.34041629 75.93621872 C-60.33587692 71.9469579 -60.33773655 67.95797788 -60.35717773 63.96875572 C-60.37484814 60.31120723 -60.3737808 56.65414355 -60.35828044 52.99658962 C-60.35479406 51.05843991 -60.37090155 49.12028489 -60.38788491 47.18220645 C-60.28690285 33.39917365 -55.44997353 22.79869077 -45.99189758 12.87698364 C-32.59866192 0.06938376 -17.7353298 -0.03529762 0 0 Z M-4.86689758 123.12698364 C-4.08126638 127.84077088 -3.39939303 130.62193097 -1.48799133 134.79104614 C-0.98702942 135.89480591 -0.4860675 136.99856567 0.03007507 138.13577271 C0.85451111 139.92579712 0.85451111 139.92579712 1.69560242 141.75198364 C2.27508121 143.0247019 2.85367287 144.2978244 3.43144226 145.57131958 C4.35315504 147.60291098 5.27531 149.634286 6.19987488 151.6645813 C9.58928456 159.11038086 12.91294157 166.58509541 16.2311554 174.06283569 C17.26434168 176.39104335 18.29860758 178.71876905 19.33305359 181.04641724 C23.07985578 189.48047605 26.8045836 197.92381518 30.50810242 206.37698364 C36.1102028 219.1573538 41.85130491 231.87512781 47.58964539 244.59475708 C48.13993408 245.81544388 48.13993408 245.81544388 48.70133972 247.06079102 C49.42988602 248.67543611 50.15976842 250.28947906 50.89103699 251.90289307 C52.75514917 256.02468141 54.58297032 260.15795491 56.35820007 264.31887817 C56.71763199 265.15306778 57.0770639 265.98725739 57.4473877 266.84672546 C58.13175723 268.43886245 58.80754664 270.03472309 59.47348022 271.63465881 C60.28007079 273.50203746 61.1978375 275.32061411 62.13310242 277.12698364 C63.12310242 277.45698364 64.11310242 277.78698364 65.13310242 278.12698364 C71.94530071 263.04006217 78.68458975 247.92814236 85.23786926 232.72668457 C89.83992497 222.05722369 94.53038105 211.4288208 99.25810242 200.81448364 C99.76926605 199.66662384 99.76926605 199.66662384 100.29075623 198.49557495 C101.6345398 195.47808059 102.97839301 192.46061726 104.32243347 189.4432373 C108.1241498 180.90590894 111.90660885 172.36030949 115.64482117 163.79495239 C117.34258967 159.90638502 119.07939764 156.03820556 120.84013367 152.17776489 C121.68798079 150.28592334 122.53564543 148.39399999 123.38310242 146.50198364 C123.77876404 145.65450562 124.17442566 144.80702759 124.58207703 143.93386841 C126.80396481 138.91694852 127.73900572 135.59470203 126.13310242 130.12698364 C124.15310242 126.66198364 124.15310242 126.66198364 122.13310242 123.12698364 C110.58310242 123.12698364 99.03310242 123.12698364 87.13310242 123.12698364 C81.97791188 133.42604872 81.97791188 133.42604872 77.37138367 143.92776489 C77.0540477 144.69324142 76.73671173 145.45871796 76.40975952 146.24739075 C75.41759056 148.64307847 74.43140097 151.0411686 73.44560242 153.43948364 C72.44768391 155.85505124 71.44854004 158.27010946 70.4493103 160.68513489 C69.83383742 162.17396409 69.219356 163.66320373 68.6060791 165.15293884 C68.05133056 166.49967355 67.49425478 167.84545267 66.93452454 169.19012451 C66.38947561 170.50738662 65.8541492 171.8287047 65.32752991 173.15344238 C63.35199674 178.01753648 63.35199674 178.01753648 61.13310242 179.12698364 C60.95850494 178.57436859 60.78390747 178.02175354 60.60401917 177.45239258 C58.8624206 172.06875728 56.84215189 166.91481723 54.51591492 161.75979614 C54.17688141 160.99956146 53.8378479 160.23932678 53.48854065 159.45605469 C52.41567274 157.05291069 51.33697428 154.65243721 50.25810242 152.25198364 C49.54287849 150.65189311 48.82803198 149.05163381 48.11357117 147.45120239 C44.48371869 139.32912001 40.81448996 131.22603625 37.13310242 123.12698364 C23.27310242 123.12698364 9.41310242 123.12698364 -4.86689758 123.12698364 Z M145.13310242 123.12698364 C144.67754471 124.18170868 144.221987 125.23643372 143.75262451 126.32312012 C142.03645035 130.29613795 140.31967042 134.26889379 138.60272217 138.24157715 C137.86454423 139.94980015 137.12652312 141.65809094 136.38867188 143.36645508 C132.15113518 153.17740853 127.89784576 162.98019066 123.57060242 172.75198364 C118.39833919 184.45609175 113.36215817 196.21723193 108.3457489 207.98880005 C108.04029648 208.70421967 107.73484406 209.41963928 107.4201355 210.15673828 C106.82317394 211.55548129 106.22761477 212.95482375 105.63354492 214.35479736 C103.57097845 219.19011131 101.35123138 223.93026859 98.97636414 228.62161255 C96.82997732 234.99863092 98.55352 240.0755075 101.27372742 245.93167114 C101.5971814 246.65508698 101.92063538 247.37850281 102.25389099 248.12384033 C103.28486347 250.42223693 104.33352202 252.71203395 105.38310242 255.00198364 C106.07310237 256.5313917 106.76191546 258.0613358 107.44950867 259.59182739 C108.7585365 262.50085692 110.07400446 265.40679457 111.39677429 268.30960083 C113.33746913 272.56952831 115.24095934 276.84527844 117.13310242 281.12698364 C120.00336015 278.64272246 121.27800118 276.02659343 122.81278992 272.58010864 C123.32213074 271.44234985 123.83147156 270.30459106 124.35624695 269.13235474 C124.90722071 267.8807207 125.45782789 266.62892525 126.00810242 265.37698364 C126.59105237 264.0638974 127.17422734 262.75091102 127.75761414 261.4380188 C131.98315575 251.8930268 136.03261918 242.27926354 140.0315094 232.637146 C145.96294711 218.34809746 152.22855264 204.20954484 158.51054382 190.07180786 C159.28972198 188.31808394 160.06885715 186.56434091 160.84794617 184.81057739 C161.21953857 183.9742981 161.59113098 183.1380188 161.97398376 182.27639771 C165.08950695 175.25249899 168.1261078 168.1980063 171.13310242 161.12698364 C180.04310242 160.79698364 188.95310242 160.46698364 198.13310242 160.12698364 C188.52986177 183.47514692 178.6145707 206.67731925 168.51957703 229.81716919 C162.32743302 244.01835636 156.22438662 258.25431084 150.2306366 272.54049683 C149.28640278 274.76571074 148.30874311 276.9719435 147.32157898 279.17825317 C145.94618963 282.06086189 145.94618963 282.06086189 146.13310242 285.12698364 C159.33310242 285.12698364 172.53310242 285.12698364 186.13310242 285.12698364 C192.49306481 270.47141813 198.84989244 255.8155823 205.13310242 241.12698364 C210.59065463 228.37138479 216.09955979 215.63852356 221.62461853 202.91207886 C223.36466611 198.90252736 225.09972861 194.89085252 226.8314209 190.87768555 C228.01995472 188.12333223 229.20970486 185.36950497 230.39949036 182.61569214 C230.96525209 181.30528058 231.5304316 179.99461747 232.09498596 178.6836853 C232.87956947 176.86202896 233.66644888 175.04136198 234.45341492 173.22073364 C234.89959167 172.18626099 235.34576843 171.15178833 235.8054657 170.08596802 C236.24358582 169.10950317 236.68170593 168.13303833 237.13310242 167.12698364 C237.55962097 166.03192505 237.98613953 164.93686646 238.42558289 163.80862427 C240.13310242 161.12698364 240.13310242 161.12698364 242.83280945 160.27175903 C243.92190613 160.22398315 245.01100281 160.17620728 246.13310242 160.12698364 C247.35755066 160.05922729 248.5819989 159.99147095 249.84355164 159.92166138 C251.20817741 159.88043681 252.57294088 159.84359392 253.93778992 159.81057739 C254.66176971 159.7897963 255.38574951 159.7690152 256.13166809 159.74760437 C258.42372481 159.68269512 260.71588715 159.62349927 263.00810242 159.56448364 C264.57061294 159.52124252 266.13311314 159.47762653 267.69560242 159.43362427 C271.50799667 159.32707468 275.32049621 159.22564569 279.13310242 159.12698364 C280.97255453 154.94883769 282.80542921 150.76789088 284.63237 146.58425903 C285.25428422 145.16257898 285.87796252 143.74166924 286.50346375 142.32156372 C287.40423842 140.27565146 288.29855183 138.22701765 289.19169617 136.17776489 C289.47089401 135.54735794 289.75009186 134.91695099 290.03775024 134.2674408 C291.48806285 130.92169904 292.69858123 127.76165506 293.13310242 124.12698364 C292.0830732 122.85353158 292.0830732 122.85353158 289.71430111 123.00393581 C288.63119435 123.00485761 287.5480876 123.0057794 286.43215942 123.00672913 C285.19390411 123.00535446 283.9556488 123.0039798 282.67987061 123.00256348 C281.29505897 123.00610309 279.91024757 123.0097379 278.5254364 123.01345825 C277.07703147 123.01374012 275.6286264 123.0135824 274.18022156 123.01301575 C270.23617928 123.01272775 266.29216714 123.01862484 262.3481319 123.0255897 C258.23080773 123.03182287 254.11348294 123.03242701 249.99615479 123.03361511 C242.19404379 123.03672854 234.39194674 123.04494208 226.5898419 123.0549646 C217.70969938 123.06612538 208.8295562 123.0716361 199.94940841 123.07666004 C181.6772985 123.08712469 163.40520158 123.10472435 145.13310242 123.12698364 Z " fill="#000001" transform="translate(105.86689758300781,45.873016357421875)"/>
<path d="M0 0 C165 0 330 0 500 0 C500 165 500 330 500 500 C335 500 170 500 0 500 C0 335 0 170 0 0 Z M61 58 C60.3709375 58.53496094 59.741875 59.06992187 59.09375 59.62109375 C51.81180159 66.28024394 46.4687176 75.86508319 45.8157382 85.80487144 C45.74170205 89.32267963 45.73359433 92.83540704 45.74603271 96.35398865 C45.74372662 97.7196391 45.74054909 99.08528832 45.73657823 100.45093495 C45.72824198 104.19362945 45.73235018 107.93622174 45.73855066 111.67891657 C45.74307898 115.71920942 45.73608948 119.7594848 45.73059082 123.79977417 C45.721699 131.71103964 45.72361797 139.62226715 45.7294161 147.5335341 C45.73393373 153.96398483 45.73454506 160.39442493 45.73236847 166.82487679 C45.732062 167.74026314 45.73175554 168.6556495 45.73143978 169.59877484 C45.73080033 171.45840525 45.7301519 173.31803567 45.7294946 175.17766608 C45.72379184 192.61458647 45.73034819 210.05148584 45.74109533 227.48840279 C45.7500293 242.44646201 45.74847997 257.40449017 45.73925781 272.36254883 C45.72855165 289.73572983 45.72434274 307.10889239 45.73048234 324.48207623 C45.73111943 326.3351533 45.73174817 328.18823037 45.73236847 330.04130745 C45.73267702 330.95303734 45.73298557 331.86476722 45.73330347 332.80412529 C45.73502948 339.22551 45.73211729 345.64688301 45.72740936 352.06826591 C45.72179663 359.89578626 45.72332519 367.7232665 45.73397085 375.55078226 C45.73922249 379.54364482 45.74129296 383.53644055 45.73467255 387.5293026 C45.7287004 391.18654114 45.73200904 394.84365106 45.74262765 398.50087798 C45.74590975 400.44614655 45.73940197 402.39142408 45.73251319 404.33668321 C45.76053222 410.59330941 46.14206315 416.01672135 48 422 C48.24878906 422.86367188 48.49757812 423.72734375 48.75390625 424.6171875 C52.68087639 435.58235049 61.53631319 444.17460063 71.8046875 449.4375 C77.95128781 452.30700041 82.81987046 454.12020722 89.63525867 454.1398077 C90.79045972 454.14549894 91.94566076 454.15119018 93.13586789 454.15705389 C95.0407354 454.1588237 95.0407354 454.1588237 96.98408508 454.16062927 C98.34628211 454.16536114 99.70847774 454.17051218 101.07067174 454.17604691 C104.81799445 454.18994845 108.56530744 454.19753535 112.31264937 454.2040199 C115.52608715 454.21039328 118.73950901 454.22046316 121.95293687 454.23058056 C132.54190075 454.2639014 143.13087433 454.28542794 153.71987346 454.30378041 C156.4784548 454.30857667 159.23703574 454.31355986 161.99561667 454.31858563 C179.13494231 454.34956345 196.27427135 454.37624247 213.41361713 454.39300442 C217.38357359 454.39695378 221.35352999 454.40095679 225.32348633 454.4050293 C226.31017377 454.40603766 227.29686121 454.40704602 228.31344827 454.40808494 C244.28192443 454.42507624 260.25024519 454.4661678 276.21864555 454.51705229 C292.62323415 454.56889531 309.02774299 454.59795568 325.4324128 454.6052013 C334.63880832 454.60985567 343.84494959 454.62452369 353.05126381 454.6649456 C360.89555317 454.69934577 368.73954238 454.71314478 376.58390281 454.70052146 C380.58188347 454.69471743 384.57923017 454.69839728 388.57711411 454.7286911 C415.87127262 455.23531207 415.87127262 455.23531207 439 442 C444.21247739 436.82606219 448.18988789 431.78538689 451 425 C451.26636906 424.38013271 451.53273812 423.76026542 451.80717897 423.12161428 C454.45234478 416.22688138 454.42521227 409.63306623 454.39440918 402.31852722 C454.39930461 400.94162367 454.40549743 399.56472423 454.41286707 398.1878317 C454.42920714 394.42314518 454.42696085 390.6586689 454.4214921 386.8939594 C454.41881455 382.82633952 454.43336729 378.75877475 454.44558716 374.69117737 C454.46661285 366.72937599 454.47118365 358.76764748 454.46939927 350.80582162 C454.46809019 344.33206437 454.47190325 337.85832979 454.47932434 331.3845768 C454.4814236 329.51779805 454.4835212 327.6510193 454.48561716 325.78424054 C454.48666069 324.85500747 454.48770422 323.9257744 454.48877937 322.96838275 C454.50767024 305.40495188 454.50663509 287.8415628 454.49981004 270.27812598 C454.49423558 254.22388758 454.51505792 238.1698088 454.54817051 222.1156077 C454.5819345 205.61707004 454.59707245 189.11860879 454.59245348 172.62003595 C454.59021151 163.36300212 454.59541203 154.10611581 454.62034607 144.84911156 C454.64139422 136.96789722 454.64491642 129.08691131 454.62604648 121.20568749 C454.61691017 117.18788165 454.6156804 113.17050131 454.63640213 109.15272903 C454.65519531 105.46800147 454.65051685 101.78404539 454.62785631 98.09934644 C454.62173232 96.14915797 454.63999562 94.19893879 454.65939283 92.24883717 C454.54146904 80.44384605 450.75753608 70.87678258 443 62 C442.52304687 61.40703125 442.04609375 60.8140625 441.5546875 60.203125 C436.05484978 53.95707814 425.40048319 47.63039887 416.93619698 46.79673111 C415.74027364 46.74297989 415.74027364 46.74297989 414.52019024 46.68814278 C413.14602506 46.62618133 413.14602506 46.62618133 411.74409896 46.56296813 C410.23853739 46.50486455 410.23853739 46.50486455 408.70256042 46.44558716 C407.10786967 46.38239609 407.10786967 46.38239609 405.48096293 46.31792843 C392.61393948 45.85431712 379.74669095 45.85723718 366.8730098 45.86927533 C363.21057025 45.87157978 359.54813504 45.86802544 355.88569641 45.86529541 C348.74980203 45.86089312 341.61391827 45.86178877 334.47802351 45.86470805 C328.67540843 45.86698218 322.87279629 45.86726598 317.07018089 45.86618423 C316.23902695 45.866031 315.40787301 45.86587777 314.55153259 45.86571989 C312.86230992 45.86540012 311.17308724 45.86507591 309.48386457 45.8647473 C293.71918721 45.86190928 277.95451572 45.86515408 262.18983933 45.87054767 C248.69011458 45.87502331 235.19039842 45.87423027 221.69067383 45.86962891 C205.95878607 45.86426912 190.22690339 45.86217427 174.49501485 45.86524117 C172.81595846 45.86555968 171.13690207 45.86587405 169.45784569 45.86618423 C168.21906718 45.86641565 168.21906718 45.86641565 166.95526284 45.86665174 C161.16020503 45.867512 155.36515047 45.86606481 149.57009315 45.86370468 C142.50803272 45.86089127 135.4459834 45.86167775 128.38392422 45.86698543 C124.78729245 45.86960027 121.19067915 45.87066523 117.59404755 45.86733627 C113.68498727 45.86377293 109.77595678 45.86804808 105.86689758 45.87301636 C104.74606901 45.87078564 103.62524044 45.86855491 102.47044736 45.86625659 C85.99076185 45.90668189 73.72859599 46.81498375 61 58 Z " fill="#FEFEFE" transform="translate(0,0)"/>
<path d="M0 0 C48.51 0 97.02 0 147 0 C148.18490789 4.73963154 147.53131806 5.79149305 145.54296875 10.12109375 C145.00736328 11.30380859 144.47175781 12.48652344 143.91992188 13.70507812 C143.34281856 14.94939072 142.76534107 16.19352984 142.1875 17.4375 C141.62065652 18.67723736 141.05488937 19.91746746 140.49023438 21.15820312 C139.44730509 23.447165 138.39924642 25.73380145 137.34448242 28.01733398 C136.15558427 30.65484418 135.04986282 33.3046761 134 36 C133.03175293 36.02505615 132.06350586 36.0501123 131.06591797 36.07592773 C127.45398015 36.17050706 123.84221215 36.27060183 120.23046875 36.37231445 C118.67093901 36.41547308 117.11136781 36.45716056 115.55175781 36.49731445 C113.30260758 36.55548213 111.05366241 36.61903923 108.8046875 36.68359375 C107.76838699 36.70866249 107.76838699 36.70866249 106.71115112 36.73423767 C102.73077468 36.85448257 98.87123187 37.03326937 95 38 C93.420253 40.33738076 92.43015889 42.24120205 91.375 44.8125 C90.88422974 45.92782104 90.88422974 45.92782104 90.38354492 47.06567383 C89.2320648 49.70082725 88.116825 52.34998382 87 55 C86.09417871 57.10230909 85.18653204 59.20383235 84.27734375 61.3046875 C82.23663233 66.0334236 80.21082986 70.76829573 78.1953125 75.5078125 C75.32310287 82.25919661 72.41121961 88.99296218 69.48718262 95.72207642 C62.55247367 111.6819105 55.69628971 127.67513043 48.85180664 143.67382812 C46.23660438 149.78343711 43.61790731 155.89154961 41 162 C27.8 162 14.6 162 1 162 C1.74985341 158.25073296 2.46046841 155.59116414 3.92333984 152.17358398 C4.32311035 151.23324814 4.72288086 150.29291229 5.13476562 149.32408142 C5.7912207 147.80047752 5.7912207 147.80047752 6.4609375 146.24609375 C7.14760498 144.6371096 7.14760498 144.6371096 7.84814453 142.99562073 C9.35246365 139.47424545 10.86367541 135.95587362 12.375 132.4375 C13.15633257 130.61119897 13.93766256 128.78489677 14.71845436 126.95836449 C19.93123224 114.76403825 25.17393052 102.58264739 30.4375 90.41015625 C30.86028229 89.43227646 31.28306458 88.45439667 31.71865845 87.44688416 C33.68102347 82.90989221 35.64655758 78.37432415 37.61865234 73.84155273 C42.92184241 61.63014435 47.98907326 49.33458891 53 37 C39.635 37.495 39.635 37.495 26 38 C12.32254332 68.81113504 12.32254332 68.81113504 -1.0625 99.75 C-1.36915588 100.46820923 -1.67581177 101.18641846 -1.99176025 101.9263916 C-3.18048063 104.71125828 -4.36887878 107.49626203 -5.55667114 110.28152466 C-9.28819211 119.0273236 -13.07515005 127.74880955 -16.89013672 136.45849609 C-18.03945202 139.09034217 -19.17816832 141.72662786 -20.31640625 144.36328125 C-21.04392117 146.03400647 -21.77176861 147.70458695 -22.5 149.375 C-22.82669678 150.13756104 -23.15339355 150.90012207 -23.48999023 151.68579102 C-25.77243731 156.88621865 -25.77243731 156.88621865 -28 158 C-29.74311649 154.12701062 -31.48455638 150.25327261 -33.22460938 146.37890625 C-33.81369498 145.06783938 -34.40319654 143.75695931 -34.99316406 142.44628906 C-36.71992935 138.60968768 -38.43417829 134.76781094 -40.13977051 130.92175293 C-41.00225489 128.99496257 -41.88411532 127.07792874 -42.76855469 125.16113281 C-43.32270809 123.93314228 -43.87643664 122.70495992 -44.4296875 121.4765625 C-44.92452637 120.39713379 -45.41936523 119.31770508 -45.92919922 118.20556641 C-48.18531865 111.45161107 -46.79345875 106.52642804 -43.8515625 100.28515625 C-43.52336014 99.56067291 -43.19515778 98.83618958 -42.85700989 98.0897522 C-41.79107114 95.74194716 -40.7079412 93.40250377 -39.625 91.0625 C-38.14418682 87.81240777 -36.67216635 84.55835034 -35.19921875 81.3046875 C-34.83443924 80.50236191 -34.46965973 79.70003632 -34.09382629 78.87339783 C-30.67125908 71.32863326 -27.4688873 63.70521991 -24.35986328 56.02563477 C-21.16383697 48.19292097 -17.59676849 40.70736105 -14 33 C-9.38 22.11 -4.76 11.22 0 0 Z " fill="#825CF6" transform="translate(251,169)"/>
<path d="M0 0 C13.86 0 27.72 0 42 0 C57.24677563 33.37807637 57.24677563 33.37807637 62.4375 45.4375 C62.8080249 46.29303467 63.1785498 47.14856934 63.56030273 48.0300293 C66 53.7512954 66 53.7512954 66 56 C68.61744673 54.69127664 68.78128364 53.59296722 69.8918457 50.91430664 C70.25595047 50.04572525 70.62005524 49.17714386 70.99519348 48.28224182 C71.38478745 47.33445358 71.77438141 46.38666534 72.17578125 45.41015625 C72.58281784 44.43646591 72.98985443 43.46277557 73.40922546 42.45957947 C74.71665944 39.32981901 76.01515315 36.19645378 77.3125 33.0625 C78.60020424 29.96114821 79.88989687 26.86066349 81.18363953 23.76182556 C81.9888528 21.83221191 82.79051915 19.9011128 83.58796692 17.96827698 C83.96152817 17.07132614 84.33508942 16.17437531 84.7199707 15.25024414 C85.04036819 14.4760463 85.36076569 13.70184845 85.69087219 12.90419006 C87.65849438 8.53918553 89.85874795 4.28250409 92 0 C103.55 0 115.1 0 127 0 C132 10 132 10 131.9387207 13.30444336 C131.01547569 15.95556123 130.09597152 18.55196133 128.98046875 21.12890625 C128.54589355 22.13977295 128.11131836 23.15063965 127.66357422 24.19213867 C126.93291748 25.86046753 126.93291748 25.86046753 126.1875 27.5625 C125.66687988 28.76430908 125.14625977 29.96611816 124.60986328 31.2043457 C118.76221218 44.67300612 112.76648583 58.07766553 106.79003906 71.48950195 C100.96659111 84.55925352 95.18252273 97.64558718 89.4375 110.75 C89.0650415 111.59951233 88.69258301 112.44902466 88.30883789 113.32427979 C86.86822263 116.61043615 85.42783875 119.89669369 83.98794556 123.1831665 C80.791025 130.47953733 77.58459644 137.77169659 74.375 145.0625 C73.91923584 146.09793945 73.46347168 147.13337891 72.99389648 148.20019531 C71.99608992 150.46686691 70.99814493 152.73347739 70 155 C67 154 67 154 65.12158203 150.49121094 C64.40610104 148.91048352 63.70239324 147.32439695 63.0078125 145.734375 C62.62565079 144.88239532 62.24348907 144.03041565 61.8497467 143.15261841 C60.59814979 140.35609513 59.36156844 137.55319693 58.125 134.75 C57.2618004 132.81352911 56.3976182 130.87749595 55.5324707 128.94189453 C53.80648981 125.07657651 52.08607086 121.20886325 50.37060547 117.33886719 C48.37827911 112.84652431 46.37003042 108.3616979 44.34765625 103.8828125 C38.38617415 90.67034302 32.53205951 77.41284022 26.75 64.12109375 C23.11859072 55.78412112 19.42815959 47.47526809 15.703125 39.1796875 C14.78188238 37.12374274 13.8607399 35.06775311 12.93969727 33.01171875 C11.57143551 29.95756899 10.20086744 26.90457459 8.82247925 23.85498047 C7.53561674 21.00762022 6.25730952 18.15655283 4.98046875 15.3046875 C4.59260193 14.45292938 4.20473511 13.60117126 3.80511475 12.72360229 C3.4494342 11.92519928 3.09375366 11.12679626 2.72729492 10.30419922 C2.26101936 9.26983231 2.26101936 9.26983231 1.7853241 8.21456909 C1 6 1 6 0 0 Z " fill="#727BF9" transform="translate(101,169)"/>
</svg>
