<?xml version="1.0" encoding="UTF-8"?>
<!DOCTYPE svg PUBLIC "-//W3C//DTD SVG 1.1//EN" "http://www.w3.org/Graphics/SVG/1.1/DTD/svg11.dtd">
<svg xmlns="http://www.w3.org/2000/svg" version="1.1" width="500px" height="500px" style="shape-rendering:geometricPrecision; text-rendering:geometricPrecision; image-rendering:optimizeQuality; fill-rule:evenodd; clip-rule:evenodd" xmlns:xlink="http://www.w3.org/1999/xlink">
<g><path style="opacity:1" fill="#e0e0e0" d="M 114.5,147.5 C 96.1636,147.333 77.8303,147.5 59.5,148C 60.2524,148.671 60.5858,149.504 60.5,150.5C 58.8958,149.713 58.2291,148.38 58.5,146.5C 77.3408,146.17 96.0075,146.503 114.5,147.5 Z"/></g>
<g><path style="opacity:1" fill="#f5f5f5" d="M 176.5,147.5 C 191.991,146.504 207.658,146.17 223.5,146.5C 223.5,147.5 223.5,148.5 223.5,149.5C 208.074,147.54 192.407,146.873 176.5,147.5 Z"/></g>
<g><path style="opacity:1" fill="#7f7f7f" d="M 275.5,146.5 C 275.5,146.833 275.5,147.167 275.5,147.5C 267.493,147.334 259.493,147.5 251.5,148C 250.956,148.717 250.289,149.217 249.5,149.5C 249.414,148.504 249.748,147.671 250.5,147C 258.827,146.5 267.16,146.334 275.5,146.5 Z"/></g>
<g><path style="opacity:1" fill="#a1a1a1" d="M 275.5,147.5 C 275.5,147.167 275.5,146.833 275.5,146.5C 330.504,146.167 385.504,146.5 440.5,147.5C 440.376,148.107 440.043,148.44 439.5,148.5C 385.003,147.501 330.336,147.168 275.5,147.5 Z"/></g>
<g><path style="opacity:1" fill="#111111" d="M 114.5,147.5 C 117.381,152.595 119.714,157.928 121.5,163.5C 121.552,166.346 122.552,168.68 124.5,170.5C 125.931,171.78 126.598,173.447 126.5,175.5C 126.66,177.153 127.326,178.486 128.5,179.5C 133.653,189.474 137.986,199.808 141.5,210.5C 141.66,212.153 142.326,213.486 143.5,214.5C 144.504,215.683 145.338,217.016 146,218.5C 155.029,195.896 164.529,173.562 174.5,151.5C 175.674,150.486 176.34,149.153 176.5,147.5C 192.407,146.873 208.074,147.54 223.5,149.5C 225.04,152.794 226.373,156.128 227.5,159.5C 227.5,161.5 227.5,163.5 227.5,165.5C 227.608,167.514 226.942,169.18 225.5,170.5C 224.326,171.514 223.66,172.847 223.5,174.5C 222.548,177.697 221.215,180.697 219.5,183.5C 218.069,184.78 217.402,186.447 217.5,188.5C 212.695,200.774 207.361,212.774 201.5,224.5C 200.326,225.514 199.66,226.847 199.5,228.5C 195.429,238.972 191.095,249.306 186.5,259.5C 185.094,259.973 184.427,260.973 184.5,262.5C 183.43,266.818 181.764,270.818 179.5,274.5C 178.069,275.78 177.402,277.447 177.5,279.5C 167.831,301.508 158.165,323.508 148.5,345.5C 147.833,345.167 147.167,344.833 146.5,344.5C 142.168,334.505 137.835,324.505 133.5,314.5C 133.771,312.62 133.104,311.287 131.5,310.5C 130.559,308.95 129.893,307.284 129.5,305.5C 129.771,303.62 129.104,302.287 127.5,301.5C 122.913,291.99 118.58,282.323 114.5,272.5C 114.598,270.447 113.931,268.78 112.5,267.5C 104.884,252.679 98.2177,237.345 92.5,221.5C 92.3404,219.847 91.6737,218.514 90.5,217.5C 83.3061,203.109 76.6394,188.443 70.5,173.5C 70.5979,171.447 69.9313,169.78 68.5,168.5C 67.0582,167.18 66.3915,165.514 66.5,163.5C 66.3404,161.847 65.6737,160.514 64.5,159.5C 64.5,159.167 64.5,158.833 64.5,158.5C 64.573,156.973 63.9063,155.973 62.5,155.5C 61.5592,153.95 60.8925,152.284 60.5,150.5C 60.5858,149.504 60.2524,148.671 59.5,148C 77.8303,147.5 96.1636,147.333 114.5,147.5 Z"/></g>
<g><path style="opacity:1" fill="#101010" d="M 275.5,147.5 C 330.336,147.168 385.003,147.501 439.5,148.5C 433.182,163.103 426.849,177.77 420.5,192.5C 419.624,193.251 418.624,193.751 417.5,194C 401.823,194.167 386.156,194.667 370.5,195.5C 369.864,197.78 368.864,199.78 367.5,201.5C 366.326,202.514 365.66,203.847 365.5,205.5C 345.732,252.823 325.399,299.823 304.5,346.5C 303.069,347.78 302.402,349.447 302.5,351.5C 285.134,352.152 268.134,351.486 251.5,349.5C 251.935,346.843 252.935,344.509 254.5,342.5C 256.176,341.817 256.843,340.483 256.5,338.5C 257.931,337.22 258.598,335.553 258.5,333.5C 263.306,321.746 268.306,310.08 273.5,298.5C 274.906,298.027 275.573,297.027 275.5,295.5C 275.98,292.557 276.98,289.89 278.5,287.5C 279.931,286.22 280.598,284.553 280.5,282.5C 289.58,260.679 298.913,239.013 308.5,217.5C 309.674,216.486 310.34,215.153 310.5,213.5C 312.47,207.581 314.803,201.915 317.5,196.5C 318.404,195.791 318.737,194.791 318.5,193.5C 306.655,193.172 294.988,193.505 283.5,194.5C 282.069,195.78 281.402,197.447 281.5,199.5C 270.043,226.519 258.377,253.519 246.5,280.5C 244.896,281.287 244.229,282.62 244.5,284.5C 243.537,287.744 242.204,290.744 240.5,293.5C 239.069,294.78 238.402,296.447 238.5,298.5C 235.388,307.202 231.722,315.535 227.5,323.5C 226.326,324.514 225.66,325.847 225.5,327.5C 224.43,331.818 222.764,335.818 220.5,339.5C 219.36,340.801 218.027,341.968 216.5,343C 217.86,345.808 217.193,346.641 214.5,345.5C 213.662,345.158 213.328,344.492 213.5,343.5C 215.255,340.91 214.588,339.243 211.5,338.5C 204.259,322.643 197.093,306.643 190,290.5C 189.262,288.119 189.762,286.119 191.5,284.5C 192.674,283.486 193.34,282.153 193.5,280.5C 193.263,279.209 193.596,278.209 194.5,277.5C 195.674,276.486 196.34,275.153 196.5,273.5C 200.707,261.428 205.707,249.761 211.5,238.5C 212.674,237.486 213.34,236.153 213.5,234.5C 213.402,232.447 214.069,230.78 215.5,229.5C 216.674,228.486 217.34,227.153 217.5,225.5C 219.961,217.915 222.961,210.582 226.5,203.5C 227.674,202.486 228.34,201.153 228.5,199.5C 228.5,199.167 228.5,198.833 228.5,198.5C 229.906,198.027 230.573,197.027 230.5,195.5C 230.5,195.167 230.5,194.833 230.5,194.5C 231.674,193.486 232.34,192.153 232.5,190.5C 233.403,186.111 235.069,182.111 237.5,178.5C 238.931,177.22 239.598,175.553 239.5,173.5C 242.278,165.277 245.611,157.277 249.5,149.5C 250.289,149.217 250.956,148.717 251.5,148C 259.493,147.5 267.493,147.334 275.5,147.5 Z"/></g>
<g><path style="opacity:1" fill="#c3c3c3" d="M 176.5,147.5 C 176.34,149.153 175.674,150.486 174.5,151.5C 174.229,149.62 174.896,148.287 176.5,147.5 Z"/></g>
<g><path style="opacity:1" fill="#c1c1c1" d="M 62.5,155.5 C 63.9063,155.973 64.573,156.973 64.5,158.5C 63.0937,158.027 62.427,157.027 62.5,155.5 Z"/></g>
<g><path style="opacity:1" fill="#d3d3d3" d="M 64.5,159.5 C 65.6737,160.514 66.3404,161.847 66.5,163.5C 64.8958,162.713 64.2291,161.38 64.5,159.5 Z"/></g>
<g><path style="opacity:1" fill="#7d7d7d" d="M 227.5,159.5 C 230.167,161.5 230.167,163.5 227.5,165.5C 227.5,163.5 227.5,161.5 227.5,159.5 Z"/></g>
<g><path style="opacity:1" fill="#959595" d="M 121.5,163.5 C 123.293,165.426 124.293,167.759 124.5,170.5C 122.552,168.68 121.552,166.346 121.5,163.5 Z"/></g>
<g><path style="opacity:1" fill="#d3d3d3" d="M 68.5,168.5 C 69.9313,169.78 70.5979,171.447 70.5,173.5C 69.0687,172.22 68.4021,170.553 68.5,168.5 Z"/></g>
<g><path style="opacity:1" fill="#c8c8c8" d="M 225.5,170.5 C 225.771,172.38 225.104,173.713 223.5,174.5C 223.66,172.847 224.326,171.514 225.5,170.5 Z"/></g>
<g><path style="opacity:1" fill="#bfbfbf" d="M 239.5,173.5 C 239.598,175.553 238.931,177.22 237.5,178.5C 237.402,176.447 238.069,174.78 239.5,173.5 Z"/></g>
<g><path style="opacity:1" fill="#bcbcbc" d="M 126.5,175.5 C 128.104,176.287 128.771,177.62 128.5,179.5C 127.326,178.486 126.66,177.153 126.5,175.5 Z"/></g>
<g><path style="opacity:1" fill="#a9a9a9" d="M 219.5,183.5 C 219.598,185.553 218.931,187.22 217.5,188.5C 217.402,186.447 218.069,184.78 219.5,183.5 Z"/></g>
<g><path style="opacity:1" fill="#c1c1c1" d="M 232.5,190.5 C 232.34,192.153 231.674,193.486 230.5,194.5C 230.229,192.62 230.896,191.287 232.5,190.5 Z"/></g>
<g><path style="opacity:1" fill="#b3b3b3" d="M 283.5,194.5 C 294.988,193.505 306.655,193.172 318.5,193.5C 318.737,194.791 318.404,195.791 317.5,196.5C 306.549,194.522 295.216,193.856 283.5,194.5 Z"/></g>
<g><path style="opacity:1" fill="#929292" d="M 230.5,195.5 C 230.573,197.027 229.906,198.027 228.5,198.5C 228.427,196.973 229.094,195.973 230.5,195.5 Z"/></g>
<g><path style="opacity:1" fill="#d2d2d2" d="M 283.5,194.5 C 283.598,196.553 282.931,198.22 281.5,199.5C 281.402,197.447 282.069,195.78 283.5,194.5 Z"/></g>
<g><path style="opacity:1" fill="#b5b5b5" d="M 228.5,199.5 C 228.34,201.153 227.674,202.486 226.5,203.5C 226.229,201.62 226.896,200.287 228.5,199.5 Z"/></g>
<g><path style="opacity:1" fill="#dadada" d="M 367.5,201.5 C 367.771,203.38 367.104,204.713 365.5,205.5C 365.66,203.847 366.326,202.514 367.5,201.5 Z"/></g>
<g><path style="opacity:1" fill="#c3c3c3" d="M 141.5,210.5 C 143.104,211.287 143.771,212.62 143.5,214.5C 142.326,213.486 141.66,212.153 141.5,210.5 Z"/></g>
<g><path style="opacity:1" fill="#afafaf" d="M 310.5,213.5 C 310.34,215.153 309.674,216.486 308.5,217.5C 308.229,215.62 308.896,214.287 310.5,213.5 Z"/></g>
<g><path style="opacity:1" fill="#bfbfbf" d="M 90.5,217.5 C 91.6737,218.514 92.3404,219.847 92.5,221.5C 90.8958,220.713 90.2291,219.38 90.5,217.5 Z"/></g>
<g><path style="opacity:1" fill="#cccccc" d="M 201.5,224.5 C 201.771,226.38 201.104,227.713 199.5,228.5C 199.66,226.847 200.326,225.514 201.5,224.5 Z"/></g>
<g><path style="opacity:1" fill="#b7b7b7" d="M 217.5,225.5 C 217.34,227.153 216.674,228.486 215.5,229.5C 215.229,227.62 215.896,226.287 217.5,225.5 Z"/></g>
<g><path style="opacity:1" fill="#c6c6c6" d="M 213.5,234.5 C 213.34,236.153 212.674,237.486 211.5,238.5C 211.229,236.62 211.896,235.287 213.5,234.5 Z"/></g>
<g><path style="opacity:1" fill="#d5d5d5" d="M 186.5,259.5 C 186.573,261.027 185.906,262.027 184.5,262.5C 184.427,260.973 185.094,259.973 186.5,259.5 Z"/></g>
<g><path style="opacity:1" fill="#c0c0c0" d="M 112.5,267.5 C 113.931,268.78 114.598,270.447 114.5,272.5C 113.069,271.22 112.402,269.553 112.5,267.5 Z"/></g>
<g><path style="opacity:1" fill="#c6c6c6" d="M 196.5,273.5 C 196.34,275.153 195.674,276.486 194.5,277.5C 194.229,275.62 194.896,274.287 196.5,273.5 Z"/></g>
<g><path style="opacity:1" fill="#dddddd" d="M 179.5,274.5 C 179.598,276.553 178.931,278.22 177.5,279.5C 177.402,277.447 178.069,275.78 179.5,274.5 Z"/></g>
<g><path style="opacity:1" fill="#b6b6b6" d="M 193.5,280.5 C 193.34,282.153 192.674,283.486 191.5,284.5C 191.229,282.62 191.896,281.287 193.5,280.5 Z"/></g>
<g><path style="opacity:1" fill="#cccccc" d="M 246.5,280.5 C 246.34,282.153 245.674,283.486 244.5,284.5C 244.229,282.62 244.896,281.287 246.5,280.5 Z"/></g>
<g><path style="opacity:1" fill="#d6d6d6" d="M 280.5,282.5 C 280.598,284.553 279.931,286.22 278.5,287.5C 278.402,285.447 279.069,283.78 280.5,282.5 Z"/></g>
<g><path style="opacity:1" fill="#b1b1b1" d="M 240.5,293.5 C 240.598,295.553 239.931,297.22 238.5,298.5C 238.402,296.447 239.069,294.78 240.5,293.5 Z"/></g>
<g><path style="opacity:1" fill="#bdbdbd" d="M 275.5,295.5 C 275.573,297.027 274.906,298.027 273.5,298.5C 273.427,296.973 274.094,295.973 275.5,295.5 Z"/></g>
<g><path style="opacity:1" fill="#c3c3c3" d="M 127.5,301.5 C 129.104,302.287 129.771,303.62 129.5,305.5C 128.326,304.486 127.66,303.153 127.5,301.5 Z"/></g>
<g><path style="opacity:1" fill="#c4c4c4" d="M 131.5,310.5 C 133.104,311.287 133.771,312.62 133.5,314.5C 132.326,313.486 131.66,312.153 131.5,310.5 Z"/></g>
<g><path style="opacity:1" fill="#bdbdbd" d="M 227.5,323.5 C 227.771,325.38 227.104,326.713 225.5,327.5C 225.66,325.847 226.326,324.514 227.5,323.5 Z"/></g>
<g><path style="opacity:1" fill="#dbdbdb" d="M 258.5,333.5 C 258.598,335.553 257.931,337.22 256.5,338.5C 256.402,336.447 257.069,334.78 258.5,333.5 Z"/></g>
<g><path style="opacity:1" fill="#646464" d="M 211.5,338.5 C 214.588,339.243 215.255,340.91 213.5,343.5C 212.463,342.07 211.796,340.403 211.5,338.5 Z"/></g>
<g><path style="opacity:1" fill="#7c7c7c" d="M 220.5,339.5 C 219.969,342.237 219.136,344.904 218,347.5C 215.851,348.84 214.684,348.173 214.5,345.5C 217.193,346.641 217.86,345.808 216.5,343C 218.027,341.968 219.36,340.801 220.5,339.5 Z"/></g>
<g><path style="opacity:1" fill="#808080" d="M 256.5,338.5 C 256.843,340.483 256.176,341.817 254.5,342.5C 254.66,340.847 255.326,339.514 256.5,338.5 Z"/></g>
<g><path style="opacity:1" fill="#f8f8f8" d="M 146.5,344.5 C 147.167,344.833 147.833,345.167 148.5,345.5C 147.377,346.757 146.711,346.424 146.5,344.5 Z"/></g>
<g><path style="opacity:1" fill="#d9d9d9" d="M 304.5,346.5 C 304.598,348.553 303.931,350.22 302.5,351.5C 302.402,349.447 303.069,347.78 304.5,346.5 Z"/></g>
<g><path style="opacity:1" fill="#7f7f7f" d="M 251.5,349.5 C 268.134,351.486 285.134,352.152 302.5,351.5C 285.341,352.497 268.008,352.83 250.5,352.5C 250.263,351.209 250.596,350.209 251.5,349.5 Z"/></g>
</svg>
