<?xml version="1.0" standalone="no"?>
<!DOCTYPE svg PUBLIC "-//W3C//DTD SVG 20010904//EN"
 "http://www.w3.org/TR/2001/REC-SVG-20010904/DTD/svg10.dtd">
<svg version="1.0" xmlns="http://www.w3.org/2000/svg"
 width="500.000000pt" height="500.000000pt" viewBox="0 0 500.000000 500.000000"
 preserveAspectRatio="xMidYMid meet">

<g transform="translate(0.000000,500.000000) scale(0.100000,-0.100000)"
fill="#000000" stroke="none">
<path d="M0 2500 l0 -2500 2500 0 2500 0 0 2500 0 2500 -2500 0 -2500 0 0
-2500z m1346 813 c19 -43 44 -96 54 -118 10 -22 53 -121 95 -220 105 -245 93
-230 122 -165 13 30 49 116 80 190 74 181 109 264 140 333 l27 57 196 0 197 0
26 -66 c29 -73 30 -65 -28 -194 -28 -64 -144 -326 -260 -590 -18 -41 -65 -149
-105 -240 -40 -91 -100 -228 -135 -305 -34 -77 -80 -182 -101 -232 -22 -51
-42 -93 -45 -93 -4 0 -23 39 -44 88 -38 88 -50 117 -100 227 -15 33 -44 98
-65 145 -172 390 -284 641 -299 675 -62 135 -157 348 -205 458 l-55 127 235 0
235 0 35 -77z m2794 68 c0 -4 -24 -62 -53 -127 -30 -65 -67 -150 -83 -189
l-30 -70 -212 -3 -212 -2 -24 -48 c-13 -26 -27 -58 -31 -72 -4 -14 -18 -47
-30 -75 -13 -27 -46 -102 -73 -165 -223 -515 -320 -739 -357 -825 -24 -55 -53
-121 -64 -147 l-22 -48 -219 0 c-121 0 -220 1 -220 3 0 2 85 201 235 547 53
124 127 297 165 385 37 88 93 218 124 288 31 71 56 135 56 143 0 12 -25 14
-152 12 l-152 -3 -18 -48 c-10 -27 -27 -67 -37 -90 -46 -102 -77 -171 -131
-297 -32 -74 -111 -256 -175 -405 -129 -296 -198 -459 -210 -490 -8 -21 -19
-1 -85 155 -15 36 -55 129 -90 208 l-63 142 66 153 c36 83 100 231 142 327 42
96 87 200 99 230 13 30 39 91 58 135 20 44 63 145 97 224 34 79 64 148 67 152
7 12 1634 12 1634 0z"/>
</g>
</svg>
