<?xml version="1.0" encoding="UTF-8"?>
<svg version="1.1" xmlns="http://www.w3.org/2000/svg" width="500" height="500">
<path d="M0 0 C165 0 330 0 500 0 C500 165 500 330 500 500 C335 500 170 500 0 500 C0 335 0 170 0 0 Z " fill="#171717" transform="translate(0,0)"/>
<path d="M0 0 C60.06 0 120.12 0 182 0 C181.12965437 4.35172815 180.04519016 7.45404594 178.234375 11.4453125 C177.95909973 12.05583466 177.68382446 12.66635681 177.40020752 13.29537964 C176.52165869 15.24082631 175.63596974 17.1829234 174.75 19.125 C174.17009818 20.4060352 173.59066698 21.68728355 173.01171875 22.96875 C171.34739811 26.64868812 169.67405544 30.32447872 168 34 C165.525 39.445 165.525 39.445 163 45 C139.735 45.495 139.735 45.495 116 46 C113.3084375 52.2184375 113.3084375 52.2184375 110.5625 58.5625 C105.22647726 70.88293246 99.86806795 83.19349987 94.5 95.5 C89.32271439 107.37040073 84.14959868 119.24255711 79 131.125 C78.73218719 131.74296448 78.46437439 132.36092896 78.18844604 132.99761963 C74.61580928 141.24405299 71.07022716 149.5016548 67.54125977 157.7668457 C61.78358823 171.21637561 55.87289992 184.60066523 50 198 C33.83 198 17.66 198 1 198 C1.79505075 192.43464476 2.34143622 189.69727618 4.66796875 184.9375 C5.20856934 183.80957031 5.74916992 182.68164062 6.30615234 181.51953125 C6.86512207 180.35808594 7.4240918 179.19664062 8 178 C9.0452972 175.71176126 10.08303989 173.42005676 11.11328125 171.125 C11.6347876 169.96524658 12.15629395 168.80549316 12.69360352 167.6105957 C13.22783936 166.41909912 13.7620752 165.22760254 14.3125 164 C14.59213593 163.37636566 14.87177185 162.75273132 15.15988159 162.11019897 C18.85226988 153.86935894 22.50423093 145.61232864 26.0625 137.3125 C26.40772705 136.50748047 26.7529541 135.70246094 27.10864258 134.87304688 C28.74033252 131.0417374 30.32515812 127.19714886 31.85546875 123.32421875 C34.50899973 116.65456767 37.38759431 110.08179568 40.25 103.5 C40.8336414 102.15448736 41.41721829 100.80894674 42.00073242 99.46337891 C45.06097241 92.41403174 48.15814192 85.3827945 51.3125 78.375 C55.1975735 69.73025114 58.7017195 60.93849945 62.16552734 52.11791992 C63.10170987 49.74185689 64.05152658 47.37118355 65 45 C48.665 45.495 48.665 45.495 32 46 C24.61697141 62.63921424 17.24994967 79.27766047 10.21459961 96.06762695 C5.74704374 106.68744305 1.07825009 117.21700511 -3.61132812 127.74023438 C-6.65854966 134.5927742 -9.62932231 141.4654668 -12.4609375 148.41015625 C-16.09029633 157.3105744 -19.96614206 166.09448283 -23.875 174.875 C-24.88862058 177.15468096 -25.90156081 179.43465625 -26.91287231 181.71536255 C-27.5335891 183.11497757 -28.15564871 184.51399809 -28.77926636 185.912323 C-29.96665045 188.58784576 -31.07359921 191.22079764 -32 194 C-32.66 194 -33.32 194 -34 194 C-37.14644324 186.9753041 -40.27481553 179.94282448 -43.38310242 172.90116882 C-45.11536688 168.98192086 -46.86850396 165.07288044 -48.63815308 161.17037964 C-49.77139556 158.66177889 -50.88865029 156.14626267 -52.00256348 153.62902832 C-52.79836502 151.84420199 -53.61338104 150.0679827 -54.42871094 148.29199219 C-57.75558276 140.7228601 -58.97566927 136.32700976 -56.10766602 128.59399414 C-54.93666801 125.73334172 -53.66917602 122.93204434 -52.375 120.125 C-51.37332969 117.89990531 -50.37204933 115.67463505 -49.37109375 113.44921875 C-48.82952637 112.25474121 -48.28795898 111.06026367 -47.72998047 109.82958984 C-44.58641522 102.88613526 -41.51599131 95.90997573 -38.4375 88.9375 C-38.11424744 88.20654114 -37.79099487 87.47558228 -37.45794678 86.72247314 C-33.13193421 76.93676975 -28.92367383 67.11354493 -24.85620117 57.21704102 C-20.53609667 46.76454327 -15.94073751 36.43404472 -11.3515625 26.09765625 C-11.04281189 25.40177399 -10.73406128 24.70589172 -10.41595459 23.98892212 C-9.57823915 22.10197533 -8.73889236 20.21575302 -7.89941406 18.32958984 C-5.22656076 12.23699595 -2.62078761 6.11517109 0 0 Z " fill="#FEFEFE" transform="translate(251,151)"/>
<path d="M0 0 C17.49 0 34.98 0 53 0 C62.07768902 18.15537804 62.07768902 18.15537804 65.75 27.3125 C70.02616888 37.79330607 74.57081239 48.13318074 79.24121094 58.44262695 C79.73137695 59.53148193 80.22154297 60.62033691 80.7265625 61.7421875 C81.16564941 62.7101123 81.60473633 63.67803711 82.05712891 64.67529297 C83 67 83 67 83 69 C83.66 69 84.32 69 85 69 C85.10328613 68.32864014 85.20657227 67.65728027 85.31298828 66.96557617 C86.15782188 63.31874115 87.5357867 59.98473341 88.9921875 56.55078125 C89.29427124 55.82834732 89.59635498 55.10591339 89.90759277 54.36158752 C90.89225483 52.00998636 91.88350569 49.66122768 92.875 47.3125 C93.55456285 45.69367473 94.23375967 44.07469577 94.91259766 42.45556641 C96.6143752 38.40013113 98.32185979 34.34713048 100.03173828 30.29510498 C100.94532215 28.12960485 101.85770177 25.96360262 102.76953125 23.79736328 C105.18142322 18.06807083 107.5974572 12.34053019 110.0234375 6.6171875 C110.38356934 5.76753418 110.74370117 4.91788086 111.11474609 4.04248047 C111.70601935 2.67827968 112.33507176 1.32985649 113 0 C127.85 0 142.7 0 158 0 C164.36021942 13.99248273 164.36021942 13.99248273 162.34619141 19.92626953 C161.41433417 22.18298698 160.38025457 24.36683887 159.3125 26.5625 C158.48317814 28.33477028 157.65652735 30.10829203 156.83203125 31.8828125 C156.15261475 33.3373584 156.15261475 33.3373584 155.45947266 34.82128906 C152.70693479 40.81627787 150.11223458 46.88046127 147.5 52.9375 C146.9378827 54.23720186 146.37562708 55.53684391 145.81323242 56.83642578 C142.93646091 63.4884187 140.08033401 70.1489818 137.24121094 76.81713867 C133.34166598 85.97151663 129.25682808 95.00625044 125 104 C124.09896708 105.93508741 123.20272047 107.87241466 122.3125 109.8125 C121.95800781 110.58207031 121.60351562 111.35164063 121.23828125 112.14453125 C120.17034698 114.60718093 119.17541158 117.08071353 118.19360352 119.57836914 C116.1653944 124.65877967 113.95155136 129.63356713 111.6640625 134.6015625 C110.83836833 136.41007712 110.01285323 138.21867351 109.1875 140.02734375 C107.91073187 142.81856582 106.63234614 145.60901581 105.35058594 148.39794922 C100.11998861 159.79014982 95.18879793 171.18108092 91 183 C90.34 183 89.68 183 89 183 C88.896875 183.94875 88.79375 184.8975 88.6875 185.875 C88 189 88 189 85 191 C80.33084482 182.13121363 76.15487954 173.15919893 72.375 163.875 C68.46988246 154.2935069 64.23108713 144.91415929 59.8125 135.5625 C55.50531494 126.44387893 51.31018154 117.32452511 47.625 107.93359375 C45.78116692 103.3312013 43.64676498 98.8614928 41.55712891 94.36694336 C39.20956737 89.29086603 36.94937542 84.17719127 34.6875 79.0625 C33.64364785 76.70814766 32.59934965 74.35399304 31.5546875 72 C31.2775441 71.37549454 31.0004007 70.75098907 30.71485901 70.1075592 C27.29985204 62.41666606 23.86393311 54.73512135 20.42718506 47.05392456 C19.31848928 44.5758866 18.21026632 42.09763753 17.10205078 39.61938477 C14.07554246 32.85373471 11.04635407 26.08953827 7.984375 19.33984375 C7.56373779 18.41163818 7.14310059 17.48343262 6.7097168 16.52709961 C5.97951643 14.91860759 5.24687353 13.31122052 4.51098633 11.70532227 C2.749172 7.82514137 1.35597399 4.06792196 0 0 Z " fill="#FEFEFE" transform="translate(66,151)"/>
<path d="M0 0 C0.33 0 0.66 0 1 0 C1 13.53 1 27.06 1 41 C-12.53 41 -26.06 41 -40 41 C-36.77794772 39.38897386 -33.66489916 38.09649079 -30.3125 36.8125 C-16.32964928 30.99481758 -7.86955879 20.70813891 -2 7 C-1.17794005 4.65968578 -0.55034658 2.42152494 0 0 Z " fill="#FEFEFE" transform="translate(499,459)"/>
<path d="M0 0 C1.61102614 3.22205228 2.90350921 6.33510084 4.1875 9.6875 C10.00518242 23.67035072 20.29186109 32.13044121 34 38 C36.34031422 38.82205995 38.57847506 39.44965342 41 40 C41 40.33 41 40.66 41 41 C27.47 41 13.94 41 0 41 C0 27.47 0 13.94 0 0 Z " fill="#FEFEFE" transform="translate(0,459)"/>
<path d="M0 0 C13.53 0 27.06 0 41 0 C41 13.53 41 27.06 41 41 C39.38897386 37.77794772 38.09649079 34.66489916 36.8125 31.3125 C31.24581644 17.93292723 21.07413228 8.92214675 8 3 C5.31714693 2.11698222 2.78246519 1.52499343 0 1 C0 0.67 0 0.34 0 0 Z " fill="#FEFEFE" transform="translate(459,0)"/>
<path d="M0 0 C13.53 0 27.06 0 41 0 C38.07773022 1.46113489 35.417555 2.59237841 32.375 3.6875 C20.52620754 8.43745645 10.52350021 17.04694691 5.0625 28.6875 C3.39801977 32.72816924 2.03730321 36.75648688 1 41 C0.67 41 0.34 41 0 41 C0 27.47 0 13.94 0 0 Z " fill="#FEFEFE" transform="translate(0,0)"/>
</svg>
