<?xml version="1.0" encoding="UTF-8"?>
<svg version="1.1" xmlns="http://www.w3.org/2000/svg" width="500" height="500">
<path d="M0 0 C62.7 0 125.4 0 190 0 C187.75392297 6.7382311 187.75392297 6.7382311 186.30078125 9.92578125 C185.98197998 10.63186523 185.66317871 11.33794922 185.3347168 12.06542969 C184.99738525 12.80696289 184.66005371 13.54849609 184.3125 14.3125 C181.17994004 21.26671119 178.19170665 28.26422306 175.34692383 35.34106445 C172.10538001 43.35288502 172.10538001 43.35288502 170 47 C167.12037166 47.95987611 165.33372559 48.12153814 162.3449707 48.11352539 C161.40422195 48.11344986 160.46347321 48.11337433 159.49421692 48.11329651 C158.48163315 48.10813522 157.46904938 48.10297394 156.42578125 48.09765625 C155.38681198 48.0962413 154.34784271 48.09482635 153.27738953 48.09336853 C149.95573052 48.08776656 146.63413867 48.07521372 143.3125 48.0625 C141.06184993 48.05748525 138.81119881 48.0529223 136.56054688 48.04882812 C131.04034163 48.03779649 125.52017561 48.02105643 120 48 C119.79920837 48.68448715 119.59841675 49.3689743 119.39154053 50.07420349 C119.12536926 50.97324905 118.859198 51.87229462 118.58496094 52.79858398 C118.32229431 53.68932114 118.05962769 54.58005829 117.78900146 55.49778748 C116.84547479 58.49005602 115.62922474 61.24593713 114.25 64.0625 C111.79849918 69.20882678 109.57131937 74.40201492 107.4375 79.6875 C105.25614154 85.07426492 102.91879972 90.27337742 100.23828125 95.43359375 C98.70010048 98.62155832 97.41066795 101.89232174 96.125 105.1875 C94.20086675 110.10894678 92.15108498 114.91435091 89.875 119.6875 C86.38854839 126.99900097 83.18544766 134.42831914 80 141.875 C79.73845123 142.48610626 79.47690247 143.09721252 79.20742798 143.72683716 C75.80844799 151.67717888 72.48330234 159.65368756 69.23486328 167.66650391 C67.42640056 172.08481775 65.38198704 176.31500531 63.1796875 180.546875 C61.30994375 184.4349514 59.8695669 188.47577174 58.40625 192.53125 C56.53841125 197.13858559 54.22334715 201.55330569 52 206 C34.84 206 17.68 206 0 206 C0.84287229 201.78563855 1.86291271 198.66752746 3.546875 194.7734375 C4.3203125 192.97712891 4.3203125 192.97712891 5.109375 191.14453125 C5.65622726 189.88801094 6.20310236 188.63150056 6.75 187.375 C7.28167037 186.14210828 7.8129239 184.90903671 8.34375 183.67578125 C11.11410587 177.26419032 13.94686209 170.88588435 16.8515625 164.53417969 C18.6676572 160.52672583 20.39956135 156.48463597 22.125 152.4375 C22.50116455 151.55835938 22.8773291 150.67921875 23.26489258 149.7734375 C25.46354491 144.62729377 27.64514759 139.47416554 29.81640625 134.31640625 C30.53256104 132.61689819 30.53256104 132.61689819 31.26318359 130.88305664 C32.18357614 128.69692714 33.1020086 126.50997092 34.01806641 124.32202148 C36.21674456 119.09820876 38.48388597 113.92449871 40.890625 108.79296875 C44.89865816 100.18140112 48.41010366 91.36971417 51.97094727 82.56665039 C57.71763998 68.38032543 57.71763998 68.38032543 60.68359375 62.57421875 C63.07562833 57.85065636 65.03359698 52.91600755 67 48 C55.78 48 44.56 48 33 48 C32.67 49.65 32.34 51.3 32 53 C31.46047835 54.50499876 30.87838937 55.99532229 30.2578125 57.46875 C29.91363281 58.28730469 29.56945312 59.10585937 29.21484375 59.94921875 C28.85519531 60.79097656 28.49554688 61.63273437 28.125 62.5 C27.59712891 63.76263672 27.59712891 63.76263672 27.05859375 65.05078125 C25.28202534 69.24453939 23.36816522 73.10420144 21 77 C20.18864647 78.98390763 19.42019587 80.98571581 18.6875 83 C15.69537104 90.9551213 12.09627012 98.57335853 8.4609375 106.25 C7.70683594 107.85875 7.70683594 107.85875 6.9375 109.5 C6.49277344 110.4384375 6.04804688 111.376875 5.58984375 112.34375 C4.22313499 115.48684435 2.99258621 118.63374564 1.78515625 121.83984375 C-1.34348961 130.0476424 -4.9198114 138.04376154 -8.5 146.0625 C-9.80393097 148.9900665 -11.10580135 151.91854132 -12.40625 154.84765625 C-12.71819809 155.54941986 -13.03014618 156.25118347 -13.35154724 156.97421265 C-15.62999457 162.11749384 -17.81391676 167.29487934 -19.93188477 172.5065918 C-20.99484675 174.98797026 -22.17814949 177.36315009 -23.4375 179.75 C-26.94244114 186.55896209 -29.40374804 193.8090066 -32 201 C-33.32 201 -34.64 201 -36 201 C-36.29656494 200.29093506 -36.59312988 199.58187012 -36.89868164 198.85131836 C-43.57855811 182.75497092 -43.57855811 182.75497092 -50.75 166.875 C-51.28109375 165.74964844 -51.8121875 164.62429688 -52.359375 163.46484375 C-53.23332367 161.61914738 -54.10783235 159.7737122 -54.98632812 157.93017578 C-56.00663831 155.77290704 -57.00500779 153.60654333 -58 151.4375 C-58.31549805 150.78185059 -58.63099609 150.12620117 -58.95605469 149.45068359 C-61.46058594 143.9175829 -60.9230662 140.45138727 -58.82006836 134.86645508 C-58.08735718 133.20972778 -58.08735718 133.20972778 -57.33984375 131.51953125 C-56.9415461 130.61034943 -56.9415461 130.61034943 -56.53520203 129.68280029 C-55.67540128 127.72328422 -54.80648053 125.76795997 -53.9375 123.8125 C-53.04120367 121.77597238 -52.14726148 119.73842234 -51.253479 117.70079041 C-50.66127527 116.35105516 -50.06830149 115.00165752 -49.47454834 113.65260315 C-47.12771385 108.315286 -44.85911245 102.94797086 -42.625 97.5625 C-40.07509497 91.43757928 -37.36200398 85.41734412 -34.50683594 79.42919922 C-32.15762926 74.45702641 -30.12546363 69.39711901 -28.13061523 64.27685547 C-26.41656176 59.92018317 -24.43686684 55.79545101 -22.27807617 51.64697266 C-20.94438919 48.88482666 -19.86297592 46.10620882 -18.796875 43.23046875 C-16.01155529 35.9054028 -12.91188483 28.73689499 -9.7512207 21.56713867 C-8.80040414 19.4100586 -7.85397443 17.2510932 -6.90820312 15.09179688 C-6.29972764 13.70562007 -5.69101271 12.31954834 -5.08203125 10.93359375 C-4.66169365 9.97579262 -4.66169365 9.97579262 -4.23286438 8.99864197 C-2.89032956 5.95556476 -1.48841373 2.97682746 0 0 Z " fill="#141414" transform="translate(251,147)"/>
<path d="M0 0 C18.48 0 36.96 0 56 0 C68.26784833 26.32762955 68.26784833 26.32762955 72.6887207 37.33935547 C74.85156676 42.713294 77.25811835 47.95244938 79.72265625 53.1953125 C80.81242391 55.58813568 81.78842301 57.96853209 82.6875 60.4375 C83.9176551 63.77649243 85.38414271 66.83505639 87 70 C94.70564786 55.71636007 100.41655655 40.43202152 106.46484375 25.3984375 C107.05715813 23.92934095 107.64952455 22.46026538 108.24194336 20.99121094 C109.40411734 18.10896487 110.55875209 15.22384656 111.70922852 12.33691406 C112.24343177 11.00837483 112.77784545 9.67992018 113.3125 8.3515625 C114.01826172 6.58546631 114.01826172 6.58546631 114.73828125 4.78369141 C116 2 116 2 118 0 C120.02481079 -0.24050903 120.02481079 -0.24050903 122.54150391 -0.22705078 C123.95274033 -0.22682419 123.95274033 -0.22682419 125.39248657 -0.22659302 C126.41023163 -0.21627045 127.42797668 -0.20594788 128.4765625 -0.1953125 C129.51694672 -0.1924826 130.55733093 -0.18965271 131.62924194 -0.18673706 C134.96127694 -0.17551704 138.29304586 -0.15040915 141.625 -0.125 C143.88020446 -0.11497256 146.13541312 -0.1058463 148.390625 -0.09765625 C153.92717454 -0.07557178 159.46356827 -0.04207639 165 0 C165.81542431 2.08219049 166.62723189 4.16579761 167.4375 6.25 C167.88996094 7.41015625 168.34242188 8.5703125 168.80859375 9.765625 C170.98671738 15.67869506 171.10472514 17.54821341 168.4375 23.4375 C167.94121094 24.54996094 167.44492188 25.66242188 166.93359375 26.80859375 C165.86213756 29.14240621 164.78084983 31.47151613 163.69848633 33.80029297 C159.63032048 42.57157601 155.70377077 51.39937896 151.8125 60.25 C151.15178944 61.75053088 150.4909808 63.25101857 149.83007812 64.75146484 C148.19011305 68.47535515 146.55144772 72.19981573 144.91314697 75.92443848 C143.55109686 79.02034625 142.18763744 82.11563219 140.82421875 85.2109375 C138.59645404 90.2693889 136.37097573 95.32883927 134.14746094 100.38916016 C133.41158506 102.06351264 132.67529411 103.73768279 131.93847656 105.41162109 C129.06575634 111.93809118 126.20559084 118.46434944 123.5 125.0625 C121.72788667 129.35168907 119.82467788 133.55723722 117.84375 137.75390625 C114.13650124 145.65154501 110.56156716 153.60528837 107.02050781 161.57861328 C106.00336412 163.86742992 104.98225815 166.15445096 103.9609375 168.44140625 C103.285962 169.95811255 102.61148014 171.47503863 101.9375 172.9921875 C101.60862793 173.73104187 101.27975586 174.46989624 100.94091797 175.23114014 C99.23712496 179.08899325 97.59954766 182.96247051 96.046875 186.88378906 C95.57713257 188.06329636 95.57713257 188.06329636 95.09790039 189.26663208 C94.50362812 190.77038077 93.9190125 192.27799193 93.34545898 193.7897644 C92.64557375 195.56111601 91.8316008 197.28653393 91 199 C90.01 199.33 89.02 199.66 88 200 C87.36384766 198.42025391 87.36384766 198.42025391 86.71484375 196.80859375 C86.12259769 195.35148044 85.53013784 193.89445401 84.9375 192.4375 C84.66228516 191.75236328 84.38707031 191.06722656 84.10351562 190.36132812 C81.84976697 184.83840559 79.35522258 179.44097749 76.8155365 174.04551697 C72.90511136 165.7109996 69.24244152 157.26763038 65.55224609 148.83398438 C61.92970542 140.56136441 58.24506739 132.32898205 54.39967346 124.15737915 C52.11210355 119.28111042 49.98244508 114.35684015 47.9375 109.375 C45.28995419 103.01160042 42.5409117 96.71910877 39.6171875 90.4765625 C37.60312191 86.14680797 35.64373563 81.7936235 33.6875 77.4375 C33.30400391 76.58406006 32.92050781 75.73062012 32.52539062 74.85131836 C31.3498228 72.23440853 30.1748779 69.61721964 29 67 C27.52158861 63.70799344 26.04229857 60.41638321 24.5625 57.125 C24.19842041 56.31442139 23.83434082 55.50384277 23.45922852 54.66870117 C21.42687799 50.14965786 19.37977026 45.63778698 17.31640625 41.1328125 C16.86773193 40.1516748 16.41905762 39.17053711 15.95678711 38.15966797 C15.09406339 36.27480248 14.22913122 34.39094562 13.36157227 32.50830078 C11.59563125 28.64807254 9.88883206 24.80825935 8.44140625 20.81640625 C6.79432839 16.28751326 4.5887441 12.10388974 2.34179688 7.84960938 C0.87907014 5.0146017 0 3.24094701 0 0 Z " fill="#151515" transform="translate(59,147)"/>
<path d="M0 0 C62.7 0 125.4 0 190 0 C189.67 0.66 189.34 1.32 189 2 C188.04417117 1.99631283 187.08834234 1.99262566 186.103549 1.98882675 C162.86949348 1.90011436 139.63545986 1.83433786 116.40127087 1.79275131 C105.16548336 1.77210695 93.92980759 1.74395057 82.6940918 1.69824219 C72.90352551 1.65843178 63.11304012 1.63258083 53.32239515 1.62364602 C48.13603887 1.61842144 42.94991407 1.60610296 37.76363182 1.57707977 C32.88566519 1.5500022 28.00802618 1.54153945 23.12999153 1.54756927 C21.33645728 1.5464656 19.54291248 1.53846622 17.74944305 1.5231781 C15.30656926 1.50336947 12.8649436 1.5080266 10.42204285 1.51898193 C9.70706499 1.50733057 8.99208713 1.4956792 8.25544327 1.48367476 C6.04882056 1.4654298 6.04882056 1.4654298 3 2 C1.13707379 3.91923999 1.13707379 3.91923999 0 6 C-0.66 6 -1.32 6 -2 6 C-1.34 4.02 -0.68 2.04 0 0 Z " fill="#A9A9A9" transform="translate(251,147)"/>
<path d="M0 0 C0.33 0.66 0.66 1.32 1 2 C0.22265625 4.1640625 0.22265625 4.1640625 -0.9375 6.625 C-1.31777344 7.44226563 -1.69804687 8.25953125 -2.08984375 9.1015625 C-2.54037109 10.04128906 -2.54037109 10.04128906 -3 11 C-6 10 -6 10 -7.1875 8.125 C-8 6 -8 6 -8 3 C-5.69 3.33 -3.38 3.66 -1 4 C-1 3.34 -1 2.68 -1 2 C-1.66 1.67 -2.32 1.34 -3 1 C-2.01 0.67 -1.02 0.34 0 0 Z " fill="#878787" transform="translate(221,338)"/>
<path d="M0 0 C8.25 0 16.5 0 25 0 C25 0.33 25 0.66 25 1 C24.02389771 1.01401855 24.02389771 1.01401855 23.02807617 1.02832031 C20.08044494 1.08199493 17.13440607 1.1656455 14.1875 1.25 C13.16333984 1.26417969 12.13917969 1.27835938 11.08398438 1.29296875 C10.10107422 1.32519531 9.11816406 1.35742188 8.10546875 1.390625 C7.19949951 1.41157227 6.29353027 1.43251953 5.36010742 1.45410156 C2.30612433 2.16049509 1.69213809 3.45783854 0 6 C-0.66 6 -1.32 6 -2 6 C-1.34 4.02 -0.68 2.04 0 0 Z " fill="#717171" transform="translate(251,147)"/>
<path d="M0 0 C2.64 0.33 5.28 0.66 8 1 C7.1875 4.4375 7.1875 4.4375 6 8 C5.01 8.33 4.02 8.66 3 9 C2.01 6.03 1.02 3.06 0 0 Z " fill="#6C6C6C" transform="translate(144,338)"/>
<path d="M0 0 C0.66 0.33 1.32 0.66 2 1 C0.84414715 4.91211733 -0.35534962 7.8745041 -3 11 C-3.75 8.3125 -3.75 8.3125 -4 5 C-2.0625 2.125 -2.0625 2.125 0 0 Z " fill="#484848" transform="translate(353,232)"/>
<path d="M0 0 C0.66 0.33 1.32 0.66 2 1 C1.34 3.97 0.68 6.94 0 10 C-1.5625 8.3125 -1.5625 8.3125 -3 6 C-2.8125 3.3125 -2.8125 3.3125 -2 1 C-1.34 0.67 -0.68 0.34 0 0 Z " fill="#3B3B3B" transform="translate(109,249)"/>
<path d="M0 0 C0.6875 1.6875 0.6875 1.6875 1 4 C0.03114628 5.68496298 -0.96986723 7.35178756 -2 9 C-2 10.32 -2 11.64 -2 13 C-2.99 13 -3.98 13 -5 13 C-4.54554036 11.58208592 -4.08625056 10.16571954 -3.625 8.75 C-3.24214844 7.56664062 -3.24214844 7.56664062 -2.8515625 6.359375 C-2.04826333 4.13372042 -1.10288338 2.09068328 0 0 Z " fill="#868686" transform="translate(196,274)"/>
<path d="M0 0 C0.33 0.99 0.66 1.98 1 3 C2.32 3 3.64 3 5 3 C5 7 5 7 3 10 C0.96564469 6.27034861 0 4.33094958 0 0 Z " fill="#727272" transform="translate(190,287)"/>
<path d="M0 0 C0 2.95274099 -0.43891831 4.49058403 -1.5 7.1875 C-1.7784375 7.90292969 -2.056875 8.61835938 -2.34375 9.35546875 C-2.5603125 9.89816406 -2.776875 10.44085938 -3 11 C-4.0625 9.125 -4.0625 9.125 -5 7 C-4.67 6.34 -4.34 5.68 -4 5 C-3.34 5 -2.68 5 -2 5 C-2.33 4.01 -2.66 3.02 -3 2 C-2.01 1.34 -1.02 0.68 0 0 Z " fill="#777777" transform="translate(227,167)"/>
<path d="M0 0 C2.97 0.495 2.97 0.495 6 1 C5.25 5.75 5.25 5.75 3 8 C2.01 5.36 1.02 2.72 0 0 Z " fill="#4B4B4B" transform="translate(160,305)"/>
<path d="M0 0 C0.33 0.66 0.66 1.32 1 2 C0.06553465 4.03144641 -0.93224776 6.03533587 -2 8 C-2.99 7.34 -3.98 6.68 -5 6 C-5 5.34 -5 4.68 -5 4 C-3.37373596 2.61767557 -1.7074998 1.28062485 0 0 Z " fill="#505050" transform="translate(199,230)"/>
<path d="M0 0 C2 3 2 3 2 7 C0.35 7.66 -1.3 8.32 -3 9 C-2.01 6.03 -1.02 3.06 0 0 Z " fill="#636363" transform="translate(169,164)"/>
<path d="M0 0 C1.9375 0.75 1.9375 0.75 4 2 C4.75 4.125 4.75 4.125 5 6 C3.68 5.67 2.36 5.34 1 5 C0.67 3.35 0.34 1.7 0 0 Z " fill="#505050" transform="translate(213,341)"/>
</svg>
